<?xml version="1.0" standalone="no"?>
<!DOCTYPE svg PUBLIC "-//W3C//DTD SVG 20010904//EN"
 "http://www.w3.org/TR/2001/REC-SVG-20010904/DTD/svg10.dtd">
<svg version="1.0" xmlns="http://www.w3.org/2000/svg"
 width="1933.000000pt" height="1280.000000pt" viewBox="0 0 1933.000000 1280.000000"
 preserveAspectRatio="xMidYMid meet">

<g transform="translate(0.000000,1280.000000) scale(0.100000,-0.100000)"
fill="#000000" stroke="none">
<path d="M14836 12198 c-29 -46 -1609 -2526 -3511 -5513 -1902 -2986 -3464
-5440 -3473 -5452 l-14 -23 1783 0 1784 1 3650 5525 c2008 3040 3652 5530
3653 5535 2 5 -792 9 -1907 9 l-1911 0 -54 -82z"/>
<path d="M2251 9487 c-987 -1530 -1795 -2789 -1795 -2798 -1 -9 818 -1245
1819 -2747 l1820 -2731 1868 -1 1868 0 -1825 2733 -1825 2734 1829 2754 c1005
1515 1825 2755 1821 2756 -7 3 -3601 83 -3711 83 l-75 0 -1794 -2783z"/>
</g>
</svg>
